<svg width="80" height="71" xmlns="http://www.w3.org/2000/svg"><path d="M78.553 62.632l-12.68-21.807c-2.469-4.142-6.384-10.988-8.852-15.214L44.426 3.888c-2.469-4.142-6.383-4.142-8.852 0L22.98 25.695c-2.468 4.142-6.383 10.988-8.851 15.215L1.447 62.632c-2.468 4.142-.426 7.607 4.425 7.607h68.256c4.85 0 6.808-3.465 4.425-7.607zm-36.085-5.071c-.68.591-1.532.93-2.468.93a3.723 3.723 0 0 1-2.468-.93c-.68-.592-1.021-1.437-1.021-2.536 0-.93.34-1.775 1.02-2.451A3.42 3.42 0 0 1 40 51.56a3.42 3.42 0 0 1 2.468 1.014c.68.676 1.021 1.437 1.021 2.451 0 1.099-.34 1.944-1.02 2.536zm.851-25.442l-1.021 11.326c-.085 1.353-.34 2.367-.681 3.128-.34.76-.936 1.098-1.787 1.098-.851 0-1.447-.338-1.702-1.014-.34-.676-.596-1.775-.681-3.212l-.766-10.988c-.17-2.113-.17-3.719-.17-4.649 0-1.268.34-2.282 1.02-2.958.682-.676 1.533-1.099 2.64-1.099 1.36 0 2.212.423 2.638 1.353.425.93.68 2.197.68 3.972 0 1.014-.085 2.029-.17 3.043z" fill-rule="nonzero" fill="#CACACA"/></svg>